PathFileType	4	(X/Y/Z)	/Users/mathieubourgeois/Desktop/Analyse/Traitement/Sujet_07/Transformed_Static_Sujet_07_Tpose.trc
DataRate	CameraRate	NumFrames	NumMarkers	Units	OrigDataRate	OrigDataStartFrame	OrigNumFrames
120.000000	120.000000	6	36	mm	120.000000	143	286
Frame#	Time	RFHD			LFHD			RBHD			LBHD			C7			CLAV			RSHO			LSHO			STRN			T10			RBWT			LBWT			RFWT			LFWT			RKNI			LKNI			RKNE			LKNE			LANI			RANI			LANE			RANE			LTOE			RTOE			LHEE			RHEE			RHUM			LHUM			RRAD			LRAD			RWRA			RWRB			LWRA			LWRB			LCAR			RCAR			
		X1	Y1	Z1	X2	Y2	Z2	X3	Y3	Z3	X4	Y4	Z4	X5	Y5	Z5	X6	Y6	Z6	X7	Y7	Z7	X8	Y8	Z8	X9	Y9	Z9	X10	Y10	Z10	X11	Y11	Z11	X12	Y12	Z12	X13	Y13	Z13	X14	Y14	Z14	X15	Y15	Z15	X16	Y16	Z16	X17	Y17	Z17	X18	Y18	Z18	X19	Y19	Z19	X20	Y20	Z20	X21	Y21	Z21	X22	Y22	Z22	X23	Y23	Z23	X24	Y24	Z24	X25	Y25	Z25	X26	Y26	Z26	X27	Y27	Z27	X28	Y28	Z28	X29	Y29	Z29	X30	Y30	Z30	X31	Y31	Z31	X32	Y32	Z32	X33	Y33	Z33	X34	Y34	Z34	X35	Y35	Z35	X36	Y36	Z36	

144	1.191666666666667	-539.8226928710938	1762.44970703125	325.1187744140623	-406.0288085937501	1762.12451171875	336.0394897460936	-542.1298217773438	1753.67333984375	170.8390197753905	-399.4714965820312	1752.1533203125	168.2409210205076	-468.5545654296875	1586.002563476562	145.3673095703124	-481.4231262207032	1534.004516601562	266.3422851562498	-623.115234375	1596.803588867188	173.1384429931639	-332.7796936035156	1598.614624023438	168.8973083496093	-478.4526367187501	1347.279907226562	307.4024658203124	-473.5338439941406	1339.404052734375	94.42744445800767	-536.3309326171875	1099.395751953125	176.7177124023436	-421.3468933105469	1093.913330078125	173.6683502197264	-585.10791015625	1064.446899414062	351.3672485351561	-369.9406738281251	1065.49560546875	343.6270141601561	-543.2294311523438	476.0982666015625	205.0116577148437	-440.0580749511719	476.7324523925781	170.9368286132812	-646.554931640625	533.025146484375	206.3577728271483	-333.6908569335938	518.4732055664062	183.0709228515624	-426.4320068359375	86.61087036132814	210.7200012207031	-541.1315307617188	89.72798156738283	203.6463317871093	-342.6675415039062	68.90160369873048	179.8053436279297	-626.7461547851562	72.22899627685548	179.4752502441405	-350.5071716308594	29.56027412414553	397.1275634765624	-605.3507080078125	31.99021339416506	393.1437988281249	-390.4563903808594	50.23236083984376	132.8526153564453	-583.5283203125	50.9809799194336	127.694107055664	-939.6314086914062	1466.53466796875	218.664840698242	-20.03189849853518	1442.492919921875	215.6590270996093	-944.7108154296875	1517.04150390625	175.0500488281248	-5.204682350158714	1497.883178710938	178.261016845703	-1213.329345703125	1591.217407226562	218.0703430175779	-1218.969360351562	1524.77294921875	188.4842987060545	254.3079071044922	1549.459350585938	242.6689300537109	265.3664245605469	1476.975830078125	220.3928070068359	359.50048828125	1532.359741210938	216.3942413330078	-1321.88330078125	1569.863403320312	197.5967102050779	
145	1.2	-539.8225708007812	1762.489868164062	325.0446166992186	-406.0146789550782	1762.161254882812	335.9552612304686	-542.1596069335938	1753.690551757812	170.7595367431639	-399.5013122558594	1752.138671875	168.1527252197264	-468.5910339355469	1586.020629882812	145.3328247070311	-481.4500122070313	1534.017211914062	266.3198852539061	-623.1624145507812	1596.78125	173.0765380859373	-332.8268737792969	1598.610107421875	168.8181304931639	-478.4779357910157	1347.297119140625	307.3973083496093	-473.5058288574219	1339.438232421875	94.39851379394517	-536.3340454101562	1099.39697265625	176.6635284423827	-421.3527221679688	1093.931396484375	173.6051788330077	-585.0933837890625	1064.45556640625	351.3165893554686	-369.9264526367188	1065.499145507812	343.5650939941405	-543.228271484375	476.0902709960938	204.9689941406249	-440.06591796875	476.7360229492188	170.9003143310546	-646.5517578125	533.0244750976562	206.3292541503905	-333.68701171875	518.47705078125	183.0580444335937	-426.4252624511719	86.62041473388673	210.7237548828124	-541.1293334960938	89.72810363769533	203.6249237060546	-342.6654357910156	68.89727020263673	179.809341430664	-626.7430419921875	72.23024749755861	179.4781494140624	-350.5095520019532	29.55482292175295	397.1280517578124	-605.3629760742188	31.99569892883303	393.1407775878906	-390.4720153808594	50.23078918457032	132.870376586914	-583.5377807617188	50.97312545776368	127.7048797607421	-939.6640014648438	1466.494995117188	218.6414642333982	-20.05807113647463	1442.463256835938	215.6407165527343	-944.7437133789062	1517.00048828125	175.0132904052732	-5.225592136383079	1497.849243164062	178.2152404785155	-1213.3623046875	1591.161376953125	217.9872283935545	-1218.998779296875	1524.705322265625	188.4342956542966	254.2486572265625	1549.483642578125	242.7319030761718	265.3276977539062	1476.994873046875	220.4637603759765	359.4696350097656	1532.388061523438	216.4861907958984	-1321.904296875	1569.831176757812	197.4457550048826	
146	1.208333333333333	-539.8355712890625	1762.527221679688	324.9718017578123	-406.0233459472657	1762.192626953125	335.8922729492186	-542.1771850585938	1753.6826171875	170.6985473632811	-399.5220031738281	1752.144775390625	168.0638885498045	-468.6237182617188	1586.016845703125	145.3060607910155	-481.4927673339844	1534.038330078125	266.3112182617186	-623.2110595703125	1596.762573242188	173.0233154296873	-332.889404296875	1598.598388671875	168.7456665039061	-478.4919433593751	1347.33544921875	307.4030151367186	-473.4743957519531	1339.474243164062	94.36750793457017	-536.341796875	1099.401123046875	176.6008758544921	-421.3645324707031	1093.949829101562	173.5460052490233	-585.0834350585938	1064.4638671875	351.2425842285155	-369.9134521484376	1065.50048828125	343.5075683593749	-543.2222290039062	476.0867309570312	204.9419555664062	-440.0499877929688	476.7435302734375	170.8738861083984	-646.5421142578125	533.0166625976562	206.3087310791014	-333.6721496582031	518.4776000976562	183.0121307373046	-426.4191284179688	86.61773681640626	210.7198028564453	-541.1329345703125	89.73055267333986	203.6279907226562	-342.67041015625	68.90238189697267	179.801025390625	-626.7464599609375	72.22967529296876	179.4815826416015	-350.5104980468751	29.56572151184085	397.1282348632812	-605.3617553710938	32.00268554687502	393.1398925781249	-390.4738159179688	50.22717666625977	132.8588562011718	-583.52734375	50.97658920288087	127.6857986450195	-939.697021484375	1466.458984375	218.6009216308592	-20.09477233886721	1442.410278320312	215.6187286376952	-944.7684936523438	1516.9638671875	174.9791717529295	-5.243864536285423	1497.763793945312	178.1407470703124	-1213.386962890625	1591.114501953125	217.8941802978513	-1219.03076171875	1524.644165039062	188.3777923583982	254.1819305419922	1549.488525390625	242.7648162841796	265.2718505859375	1476.97705078125	220.5478057861328	359.4064636230469	1532.3935546875	216.5570831298828	-1321.920288085938	1569.788452148438	197.2915802001951	
147	1.216666666666667	-539.8348388671875	1762.577758789062	324.9183654785155	-406.0501708984376	1762.244995117188	335.8129577636717	-542.1976928710938	1753.684326171875	170.6362457275389	-399.5570678710938	1752.130615234375	167.999542236328	-468.6488342285156	1586.02294921875	145.2913970947264	-481.5106811523438	1534.057861328125	266.2893981933592	-623.2518310546875	1596.7451171875	172.9896850585936	-332.9428100585938	1598.587646484375	168.6580352783202	-478.5190734863282	1347.360961914062	307.4016113281249	-473.4166259765625	1339.509399414062	94.34354400634751	-536.33447265625	1099.3984375	176.5502624511718	-421.3810119628906	1093.966918945312	173.5047760009764	-585.079833984375	1064.46337890625	351.1903991699218	-369.9184570312501	1065.502685546875	343.4474182128905	-543.2216186523438	476.0964965820312	204.934097290039	-440.0506286621094	476.73095703125	170.8453674316405	-646.547119140625	533.0132446289062	206.2646636962889	-333.654541015625	518.466552734375	182.9911956787109	-426.410888671875	86.61404418945314	210.715591430664	-541.135498046875	89.73266601562501	203.6378936767578	-342.6600952148438	68.90425109863283	179.7961883544922	-626.75146484375	72.22805023193361	179.4660644531249	-350.5103759765626	29.57303428649905	397.1251525878906	-605.3622436523438	32.00054550170901	393.1404418945312	-390.4765319824219	50.22777557373048	132.8662109374999	-583.5286254882812	50.97540283203126	127.6991653442382	-939.718994140625	1466.415649414062	218.5546874999998	-20.15141487121585	1442.314086914062	215.5715789794921	-944.7948608398438	1516.91455078125	174.9333496093748	-5.288031101226829	1497.638061523438	178.0414123535155	-1213.4033203125	1591.053833007812	217.8327636718748	-1219.04931640625	1524.586059570312	188.3154602050779	254.1109466552734	1549.489990234375	242.7778778076171	265.2213745117188	1476.957275390625	220.6495513916015	359.3450317382812	1532.39013671875	216.6617889404297	-1321.928344726562	1569.758178710938	197.1527709960935	
148	1.225	-539.862548828125	1762.607055664062	324.8640136718748	-406.0782470703126	1762.300415039062	335.7543945312498	-542.2175903320312	1753.66455078125	170.5738830566405	-399.5664978027344	1752.124877929688	167.9253540039061	-468.6706848144531	1586.0205078125	145.2749176025389	-481.5473022460938	1534.082153320312	266.2987976074217	-623.2744140625	1596.732177734375	172.9612426757811	-332.9841613769531	1598.562866210938	168.5866546630858	-478.5434875488282	1347.3974609375	307.4023132324218	-473.3822937011719	1339.521850585938	94.28778839111314	-536.338623046875	1099.403564453125	176.4826202392577	-421.3694458007812	1093.959838867188	173.4545593261718	-585.0802612304688	1064.45654296875	351.1135253906249	-369.9107666015626	1065.512451171875	343.4119873046874	-543.2241821289062	476.0836791992188	204.9078826904296	-440.0404357910156	476.7246398925781	170.8190307617187	-646.5465087890625	533.0098266601562	206.2354888916014	-333.6710510253906	518.4676513671875	182.9676208496093	-426.4076843261719	86.61465454101564	210.7242736816406	-541.1304931640625	89.7152557373047	203.6353607177734	-342.6582641601562	68.90109252929689	179.8067321777343	-626.7572021484375	72.23147583007814	179.4743652343749	-350.5041503906251	29.56402397155764	397.1244812011718	-605.3579711914062	32.00270843505862	393.1339721679687	-390.4784240722656	50.23637008666993	132.855972290039	-583.523681640625	50.97850036621094	127.6883316040038	-939.728759765625	1466.365478515625	218.4688110351561	-20.21209526062014	1442.216552734375	215.5380554199218	-944.8096923828125	1516.849853515625	174.8641662597654	-5.328516483306907	1497.4501953125	177.9292449951171	-1213.426025390625	1590.997314453125	217.7756500244138	-1219.071533203125	1524.518188476562	188.2546234130857	254.0303649902343	1549.466796875	242.7931671142578	265.1696472167969	1476.915893554688	220.7724609374999	359.2809143066406	1532.351684570312	216.782470703125	-1321.955444335938	1569.73291015625	197.033996582031	
149	1.233333333333333	-539.8984375	1762.724975585938	324.7388916015623	-406.1006164550782	1762.365234375	335.6811218261717	-542.247802734375	1753.645141601562	170.5178222656248	-399.5904541015625	1752.11083984375	167.8800659179686	-468.676025390625	1586.01416015625	145.2670440673827	-481.5723571777344	1534.103393554688	266.2934570312498	-623.29345703125	1596.730834960938	172.9424743652342	-333.0176086425781	1598.546264648438	168.5120239257811	-478.5658874511719	1347.410888671875	307.407257080078	-473.3176879882812	1339.539428710938	94.27887725830064	-536.323974609375	1099.401733398438	176.4406890869139	-421.3685607910156	1093.9716796875	173.3993835449218	-585.0787353515625	1064.455810546875	351.0278930664061	-369.9078674316407	1065.501586914062	343.3468627929686	-543.228759765625	476.0783081054688	204.8845977783202	-440.0413208007812	476.7199096679688	170.7799530029296	-646.5443725585938	533.00537109375	206.1872100830077	-333.6601867675781	518.45361328125	182.9181365966796	-426.41650390625	86.6004104614258	210.7073822021484	-541.1409301757812	89.71706390380861	203.6291503906249	-342.6656799316406	68.88801574707033	179.8096923828125	-626.7559204101562	72.23917388916017	179.4762268066405	-350.5043029785157	29.57612609863284	397.1340942382812	-605.3609008789062	32.00070571899416	393.1200561523437	-390.4693908691406	50.21469497680665	132.8563995361328	-583.535888671875	50.97153091430665	127.6777038574218	-939.7365112304688	1466.317993164062	218.3880920410154	-20.26760292053225	1442.113037109375	215.4766693115234	-944.8104858398438	1516.786987304688	174.8022613525389	-5.372866630554221	1497.261962890625	177.8076019287109	-1213.436889648438	1590.933349609375	217.7049102783201	-1219.06787109375	1524.467163085938	188.163146972656	253.952407836914	1549.457763671875	242.7833404541015	265.1231079101562	1476.863159179688	220.9091491699218	359.2195739746094	1532.313720703125	216.9207458496093	-1321.961791992188	1569.654541015625	196.9690246582029	
